<svg xmlns="http://www.w3.org/2000/svg" xmlns:xlink="http://www.w3.org/1999/xlink" width="500" zoomAndPan="magnify" viewBox="0 0 375 374.999991" height="500" preserveAspectRatio="xMidYMid meet" version="1.0"><defs><clipPath id="bb22010fd9"><path d="M 4.246094 19 L 370 19 L 370 257 L 4.246094 257 Z M 4.246094 19 " clip-rule="nonzero"/></clipPath></defs><g clip-path="url(#bb22010fd9)"><path fill="#91a8d0" d="M 334.226562 82.886719 L 118.8125 82.886719 C 118.0625 82.886719 117.320312 82.957031 116.585938 83.105469 C 115.851562 83.25 115.136719 83.46875 114.445312 83.753906 C 113.753906 84.042969 113.09375 84.394531 112.472656 84.808594 C 111.847656 85.226562 111.273438 85.699219 110.742188 86.226562 C 110.210938 86.757812 109.738281 87.335938 109.324219 87.957031 C 108.90625 88.582031 108.554688 89.238281 108.269531 89.929688 C 107.980469 90.621094 107.765625 91.335938 107.621094 92.070312 C 107.472656 92.804688 107.398438 93.546875 107.398438 94.296875 C 107.398438 95.046875 107.472656 95.789062 107.621094 96.523438 C 107.765625 97.257812 107.980469 97.972656 108.269531 98.664062 C 108.554688 99.359375 108.90625 100.015625 109.324219 100.636719 C 109.738281 101.261719 110.210938 101.839844 110.742188 102.367188 C 111.273438 102.898438 111.847656 103.371094 112.472656 103.789062 C 113.09375 104.203125 113.753906 104.554688 114.445312 104.84375 C 115.136719 105.128906 115.851562 105.34375 116.585938 105.492188 C 117.320312 105.636719 118.0625 105.710938 118.8125 105.710938 L 334.226562 105.710938 C 334.753906 105.710938 335.277344 105.742188 335.800781 105.808594 C 336.324219 105.875 336.839844 105.976562 337.347656 106.105469 C 337.859375 106.238281 338.359375 106.402344 338.847656 106.597656 C 339.335938 106.792969 339.808594 107.019531 340.269531 107.277344 C 340.730469 107.53125 341.171875 107.816406 341.59375 108.128906 C 342.019531 108.441406 342.421875 108.78125 342.800781 109.144531 C 343.183594 109.507812 343.539062 109.894531 343.867188 110.304688 C 344.199219 110.714844 344.503906 111.140625 344.78125 111.589844 C 345.058594 112.039062 345.304688 112.5 345.523438 112.980469 C 345.738281 113.460938 345.925781 113.949219 346.082031 114.453125 C 346.234375 114.957031 346.359375 115.46875 346.449219 115.988281 C 346.539062 116.503906 346.59375 117.027344 346.617188 117.554688 C 346.640625 118.078125 346.632812 118.605469 346.585938 119.128906 C 346.542969 119.65625 346.464844 120.175781 346.355469 120.6875 C 346.246094 121.203125 346.105469 121.710938 345.929688 122.207031 C 345.753906 122.703125 345.550781 123.1875 345.316406 123.65625 C 332.273438 149.835938 313.644531 208.226562 304.347656 226.8125 C 303.832031 227.84375 303.1875 228.78125 302.410156 229.632812 C 301.632812 230.480469 300.753906 231.207031 299.777344 231.8125 C 298.796875 232.417969 297.753906 232.875 296.648438 233.191406 C 295.539062 233.503906 294.410156 233.660156 293.261719 233.660156 L 134.671875 233.660156 C 133.429688 233.664062 132.214844 233.480469 131.023438 233.117188 C 129.835938 232.753906 128.726562 232.222656 127.695312 231.523438 C 126.667969 230.824219 125.765625 229.992188 124.984375 229.023438 C 124.207031 228.054688 123.589844 226.992188 123.128906 225.835938 C 123.128906 225.703125 87.457031 65.667969 87.457031 65.667969 C 87.097656 64.042969 86.671875 62.4375 86.175781 60.847656 C 85.679688 59.261719 85.117188 57.695312 84.488281 56.152344 C 83.859375 54.613281 83.167969 53.101562 82.414062 51.617188 C 81.65625 50.136719 80.839844 48.6875 79.960938 47.273438 C 79.082031 45.859375 78.148438 44.484375 77.152344 43.152344 C 76.15625 41.816406 75.109375 40.527344 74.003906 39.28125 C 72.902344 38.035156 71.746094 36.839844 70.542969 35.691406 C 69.335938 34.542969 68.085938 33.449219 66.789062 32.40625 C 65.488281 31.363281 64.152344 30.378906 62.769531 29.449219 C 61.386719 28.523438 59.972656 27.652344 58.515625 26.84375 C 57.0625 26.035156 55.574219 25.289062 54.058594 24.605469 C 52.539062 23.921875 50.996094 23.304688 49.425781 22.753906 C 47.855469 22.199219 46.265625 21.714844 44.65625 21.296875 C 43.046875 20.878906 41.417969 20.53125 39.777344 20.25 C 38.136719 19.96875 36.488281 19.757812 34.832031 19.617188 C 33.171875 19.476562 31.511719 19.40625 29.847656 19.40625 L 15.667969 19.40625 C 14.910156 19.371094 14.152344 19.414062 13.402344 19.535156 C 12.652344 19.660156 11.921875 19.859375 11.210938 20.132812 C 10.503906 20.40625 9.828125 20.753906 9.191406 21.167969 C 8.554688 21.585938 7.964844 22.0625 7.429688 22.601562 C 6.890625 23.136719 6.414062 23.726562 6 24.363281 C 5.585938 25.003906 5.238281 25.675781 4.964844 26.386719 C 4.691406 27.097656 4.492188 27.828125 4.371094 28.578125 C 4.25 29.328125 4.207031 30.085938 4.246094 30.84375 C 4.246094 31.59375 4.320312 32.335938 4.46875 33.070312 C 4.613281 33.804688 4.832031 34.515625 5.121094 35.207031 C 5.40625 35.898438 5.757812 36.554688 6.175781 37.179688 C 6.59375 37.800781 7.066406 38.378906 7.59375 38.90625 C 8.125 39.4375 8.699219 39.910156 9.324219 40.324219 C 9.945312 40.742188 10.601562 41.09375 11.292969 41.382812 C 11.984375 41.667969 12.699219 41.886719 13.433594 42.035156 C 14.167969 42.179688 14.90625 42.253906 15.65625 42.257812 L 29.847656 42.257812 C 30.867188 42.257812 31.882812 42.300781 32.902344 42.386719 C 33.917969 42.472656 34.925781 42.597656 35.933594 42.769531 C 36.9375 42.941406 37.933594 43.15625 38.921875 43.410156 C 39.90625 43.664062 40.882812 43.960938 41.84375 44.300781 C 42.804688 44.636719 43.75 45.015625 44.683594 45.433594 C 45.613281 45.851562 46.523438 46.304688 47.414062 46.800781 C 48.304688 47.296875 49.175781 47.828125 50.023438 48.394531 C 50.867188 48.960938 51.6875 49.566406 52.484375 50.203125 C 53.28125 50.839844 54.046875 51.511719 54.789062 52.210938 C 55.527344 52.914062 56.234375 53.644531 56.910156 54.410156 C 57.589844 55.171875 58.234375 55.960938 58.84375 56.777344 C 59.453125 57.59375 60.027344 58.433594 60.570312 59.300781 C 61.109375 60.164062 61.609375 61.050781 62.074219 61.957031 C 62.539062 62.867188 62.964844 63.789062 63.351562 64.734375 C 63.738281 65.679688 64.082031 66.636719 64.390625 67.609375 C 64.695312 68.582031 64.957031 69.566406 65.179688 70.558594 L 100.957031 231.285156 C 101.046875 231.652344 101.152344 232.042969 101.269531 232.410156 C 101.851562 234.152344 102.5625 235.835938 103.40625 237.46875 C 104.253906 239.097656 105.21875 240.652344 106.304688 242.132812 C 107.394531 243.609375 108.589844 244.996094 109.894531 246.289062 C 111.199219 247.582031 112.597656 248.765625 114.085938 249.835938 C 115.574219 250.910156 117.140625 251.863281 118.777344 252.691406 C 120.414062 253.519531 122.109375 254.21875 123.855469 254.78125 C 125.601562 255.347656 127.382812 255.769531 129.199219 256.058594 C 131.011719 256.34375 132.835938 256.484375 134.671875 256.484375 L 293.261719 256.484375 C 294.886719 256.484375 296.507812 256.375 298.117188 256.148438 C 299.730469 255.925781 301.320312 255.589844 302.886719 255.144531 C 304.449219 254.699219 305.976562 254.148438 307.464844 253.492188 C 308.957031 252.835938 310.390625 252.078125 311.777344 251.222656 C 313.160156 250.367188 314.480469 249.421875 315.730469 248.382812 C 316.984375 247.34375 318.160156 246.222656 319.257812 245.023438 C 320.355469 243.820312 321.363281 242.550781 322.285156 241.207031 C 323.207031 239.867188 324.03125 238.46875 324.757812 237.011719 C 334.046875 218.425781 352.632812 160.058594 365.726562 133.855469 C 366.0625 133.1875 366.375 132.511719 366.664062 131.824219 C 366.953125 131.136719 367.222656 130.441406 367.46875 129.734375 C 367.71875 129.03125 367.941406 128.320312 368.144531 127.601562 C 368.34375 126.878906 368.523438 126.15625 368.675781 125.425781 C 368.832031 124.695312 368.964844 123.960938 369.074219 123.222656 C 369.183594 122.484375 369.265625 121.742188 369.328125 120.996094 C 369.390625 120.253906 369.425781 119.507812 369.441406 118.761719 C 369.457031 118.015625 369.445312 117.269531 369.414062 116.523438 C 369.378906 115.777344 369.320312 115.03125 369.242188 114.289062 C 369.160156 113.546875 369.054688 112.808594 368.929688 112.074219 C 368.800781 111.339844 368.648438 110.605469 368.476562 109.882812 C 368.300781 109.15625 368.101562 108.433594 367.882812 107.722656 C 367.664062 107.007812 367.421875 106.300781 367.15625 105.605469 C 366.890625 104.90625 366.605469 104.21875 366.296875 103.539062 C 365.988281 102.859375 365.65625 102.1875 365.304688 101.53125 C 364.953125 100.871094 364.582031 100.222656 364.1875 99.589844 C 363.796875 98.953125 363.382812 98.332031 362.953125 97.722656 C 362.519531 97.113281 362.070312 96.519531 361.597656 95.9375 C 361.128906 95.359375 360.640625 94.792969 360.136719 94.246094 C 359.628906 93.695312 359.105469 93.164062 358.566406 92.648438 C 358.027344 92.128906 357.472656 91.632812 356.902344 91.152344 C 356.328125 90.671875 355.742188 90.210938 355.140625 89.765625 C 354.542969 89.324219 353.925781 88.898438 353.300781 88.496094 C 352.671875 88.089844 352.03125 87.707031 351.378906 87.34375 C 350.726562 86.980469 350.066406 86.636719 349.390625 86.316406 C 348.714844 85.992188 348.035156 85.695312 347.339844 85.417969 C 346.648438 85.136719 345.945312 84.882812 345.238281 84.648438 C 344.527344 84.414062 343.8125 84.207031 343.089844 84.015625 C 342.367188 83.828125 341.636719 83.664062 340.90625 83.523438 C 340.171875 83.382812 339.433594 83.265625 338.695312 83.167969 C 337.953125 83.074219 337.210938 83.003906 336.464844 82.957031 C 335.71875 82.910156 334.976562 82.886719 334.226562 82.886719 Z M 334.226562 82.886719 " fill-opacity="1" fill-rule="evenodd"/></g><path fill="#91a8d0" d="M 147.078125 269.867188 C 145.550781 269.867188 144.027344 269.941406 142.503906 270.09375 C 140.984375 270.242188 139.476562 270.464844 137.980469 270.765625 C 136.480469 271.0625 135 271.433594 133.539062 271.875 C 132.078125 272.320312 130.640625 272.832031 129.230469 273.417969 C 127.820312 274.003906 126.441406 274.652344 125.09375 275.375 C 123.746094 276.09375 122.441406 276.878906 121.167969 277.726562 C 119.898438 278.574219 118.675781 279.484375 117.496094 280.453125 C 116.3125 281.421875 115.183594 282.445312 114.105469 283.527344 C 113.023438 284.605469 112 285.738281 111.03125 286.917969 C 110.0625 288.097656 109.152344 289.324219 108.304688 290.59375 C 107.457031 291.863281 106.671875 293.171875 105.953125 294.519531 C 105.234375 295.863281 104.582031 297.242188 103.996094 298.65625 C 103.410156 300.066406 102.898438 301.503906 102.453125 302.964844 C 102.011719 304.425781 101.640625 305.90625 101.34375 307.402344 C 101.046875 308.902344 100.820312 310.410156 100.671875 311.929688 C 100.523438 313.449219 100.449219 314.972656 100.449219 316.5 C 100.449219 318.027344 100.523438 319.550781 100.671875 321.070312 C 100.824219 322.589844 101.046875 324.097656 101.34375 325.597656 C 101.644531 327.09375 102.015625 328.574219 102.457031 330.035156 C 102.902344 331.496094 103.414062 332.933594 104 334.34375 C 104.585938 335.753906 105.238281 337.132812 105.957031 338.480469 C 106.675781 339.828125 107.460938 341.136719 108.308594 342.40625 C 109.160156 343.675781 110.066406 344.902344 111.035156 346.082031 C 112.003906 347.261719 113.03125 348.390625 114.109375 349.472656 C 115.191406 350.550781 116.320312 351.574219 117.5 352.542969 C 118.683594 353.511719 119.90625 354.421875 121.175781 355.269531 C 122.445312 356.117188 123.753906 356.902344 125.101562 357.621094 C 126.449219 358.339844 127.828125 358.992188 129.238281 359.578125 C 130.652344 360.160156 132.085938 360.675781 133.546875 361.117188 C 135.011719 361.5625 136.488281 361.933594 137.988281 362.230469 C 139.484375 362.527344 140.996094 362.75 142.515625 362.898438 C 144.035156 363.050781 145.558594 363.125 147.085938 363.125 C 148.613281 363.125 150.136719 363.046875 151.65625 362.898438 C 153.175781 362.75 154.683594 362.523438 156.183594 362.226562 C 157.679688 361.929688 159.160156 361.558594 160.621094 361.113281 C 162.082031 360.667969 163.519531 360.15625 164.929688 359.570312 C 166.339844 358.984375 167.71875 358.332031 169.066406 357.613281 C 170.414062 356.894531 171.71875 356.109375 172.988281 355.261719 C 174.257812 354.410156 175.484375 353.503906 176.664062 352.535156 C 177.84375 351.5625 178.976562 350.539062 180.054688 349.460938 C 181.132812 348.378906 182.160156 347.25 183.128906 346.066406 C 184.097656 344.886719 185.003906 343.660156 185.851562 342.390625 C 186.699219 341.121094 187.484375 339.8125 188.203125 338.464844 C 188.921875 337.117188 189.574219 335.738281 190.160156 334.328125 C 190.742188 332.917969 191.257812 331.480469 191.699219 330.019531 C 192.144531 328.558594 192.511719 327.078125 192.8125 325.582031 C 193.109375 324.082031 193.332031 322.574219 193.480469 321.054688 C 193.628906 319.535156 193.703125 318.011719 193.703125 316.484375 C 193.703125 314.957031 193.628906 313.433594 193.476562 311.914062 C 193.324219 310.394531 193.101562 308.886719 192.800781 307.390625 C 192.503906 305.894531 192.132812 304.414062 191.6875 302.953125 C 191.242188 301.492188 190.730469 300.058594 190.144531 298.648438 C 189.558594 297.238281 188.90625 295.859375 188.1875 294.511719 C 187.464844 293.167969 186.683594 291.859375 185.832031 290.589844 C 184.984375 289.320312 184.078125 288.097656 183.109375 286.917969 C 182.140625 285.738281 181.113281 284.605469 180.035156 283.527344 C 178.957031 282.449219 177.824219 281.425781 176.644531 280.457031 C 175.464844 279.488281 174.242188 278.578125 172.972656 277.730469 C 171.703125 276.882812 170.394531 276.097656 169.046875 275.378906 C 167.703125 274.660156 166.324219 274.007812 164.914062 273.421875 C 163.503906 272.839844 162.066406 272.324219 160.605469 271.878906 C 159.144531 271.4375 157.667969 271.066406 156.167969 270.769531 C 154.671875 270.46875 153.164062 270.246094 151.644531 270.09375 C 150.125 269.945312 148.601562 269.867188 147.078125 269.867188 Z M 147.078125 340.300781 C 146.296875 340.300781 145.519531 340.261719 144.742188 340.183594 C 143.96875 340.109375 143.199219 339.992188 142.433594 339.84375 C 141.667969 339.691406 140.914062 339.5 140.167969 339.273438 C 139.421875 339.046875 138.6875 338.785156 137.96875 338.488281 C 137.25 338.1875 136.542969 337.855469 135.855469 337.488281 C 135.167969 337.121094 134.5 336.722656 133.851562 336.289062 C 133.207031 335.855469 132.578125 335.390625 131.976562 334.898438 C 131.375 334.402344 130.796875 333.878906 130.246094 333.328125 C 129.695312 332.777344 129.171875 332.199219 128.679688 331.597656 C 128.183594 330.996094 127.71875 330.371094 127.285156 329.722656 C 126.851562 329.074219 126.453125 328.40625 126.085938 327.71875 C 125.71875 327.03125 125.382812 326.328125 125.085938 325.609375 C 124.789062 324.886719 124.527344 324.15625 124.300781 323.410156 C 124.074219 322.664062 123.882812 321.90625 123.730469 321.144531 C 123.578125 320.378906 123.464844 319.609375 123.386719 318.832031 C 123.3125 318.058594 123.273438 317.28125 123.273438 316.5 C 123.273438 315.722656 123.3125 314.941406 123.386719 314.167969 C 123.464844 313.390625 123.578125 312.621094 123.730469 311.855469 C 123.882812 311.09375 124.070312 310.335938 124.296875 309.589844 C 124.523438 308.84375 124.785156 308.113281 125.082031 307.390625 C 125.382812 306.671875 125.714844 305.96875 126.082031 305.28125 C 126.449219 304.59375 126.847656 303.925781 127.28125 303.277344 C 127.714844 302.628906 128.179688 302.003906 128.671875 301.398438 C 129.167969 300.796875 129.6875 300.21875 130.242188 299.667969 C 130.792969 299.117188 131.367188 298.59375 131.96875 298.101562 C 132.574219 297.605469 133.199219 297.140625 133.847656 296.707031 C 134.492188 296.273438 135.160156 295.875 135.847656 295.507812 C 136.535156 295.140625 137.238281 294.804688 137.960938 294.507812 C 138.679688 294.210938 139.414062 293.945312 140.160156 293.71875 C 140.90625 293.492188 141.660156 293.304688 142.425781 293.152344 C 143.1875 293 143.960938 292.886719 144.734375 292.808594 C 145.511719 292.730469 146.289062 292.691406 147.066406 292.691406 C 147.847656 292.691406 148.625 292.730469 149.402344 292.804688 C 150.175781 292.882812 150.945312 292.996094 151.710938 293.148438 C 152.476562 293.300781 153.230469 293.488281 153.976562 293.714844 C 154.722656 293.941406 155.457031 294.203125 156.175781 294.5 C 156.898438 294.800781 157.601562 295.132812 158.289062 295.5 C 158.976562 295.867188 159.644531 296.265625 160.292969 296.699219 C 160.941406 297.132812 161.566406 297.59375 162.167969 298.089844 C 162.773438 298.582031 163.347656 299.105469 163.898438 299.65625 C 164.453125 300.207031 164.976562 300.785156 165.46875 301.386719 C 165.964844 301.988281 166.429688 302.613281 166.863281 303.261719 C 167.296875 303.910156 167.695312 304.578125 168.0625 305.265625 C 168.429688 305.953125 168.765625 306.65625 169.0625 307.375 C 169.363281 308.097656 169.625 308.828125 169.851562 309.574219 C 170.078125 310.320312 170.265625 311.074219 170.417969 311.839844 C 170.570312 312.605469 170.6875 313.375 170.761719 314.148438 C 170.839844 314.925781 170.878906 315.703125 170.878906 316.484375 C 170.878906 317.261719 170.839844 318.039062 170.765625 318.816406 C 170.6875 319.59375 170.574219 320.363281 170.421875 321.125 C 170.269531 321.890625 170.078125 322.648438 169.851562 323.390625 C 169.625 324.136719 169.363281 324.871094 169.0625 325.59375 C 168.765625 326.3125 168.433594 327.015625 168.066406 327.703125 C 167.699219 328.390625 167.296875 329.058594 166.863281 329.707031 C 166.429688 330.355469 165.96875 330.980469 165.472656 331.582031 C 164.980469 332.1875 164.457031 332.761719 163.90625 333.316406 C 163.355469 333.867188 162.777344 334.390625 162.175781 334.882812 C 161.570312 335.378906 160.945312 335.84375 160.296875 336.277344 C 159.652344 336.710938 158.984375 337.109375 158.296875 337.480469 C 157.609375 337.847656 156.90625 338.179688 156.183594 338.480469 C 155.464844 338.777344 154.730469 339.039062 153.984375 339.269531 C 153.238281 339.496094 152.484375 339.683594 151.71875 339.835938 C 150.957031 339.988281 150.183594 340.105469 149.410156 340.183594 C 148.632812 340.257812 147.855469 340.296875 147.078125 340.300781 Z M 147.078125 340.300781 " fill-opacity="1" fill-rule="evenodd"/><path fill="#91a8d0" d="M 277.035156 269.867188 C 275.507812 269.867188 273.984375 269.941406 272.464844 270.09375 C 270.945312 270.242188 269.4375 270.464844 267.9375 270.765625 C 266.441406 271.0625 264.960938 271.433594 263.5 271.875 C 262.039062 272.320312 260.601562 272.832031 259.191406 273.417969 C 257.78125 274.003906 256.402344 274.652344 255.054688 275.375 C 253.707031 276.09375 252.398438 276.878906 251.128906 277.726562 C 249.859375 278.574219 248.632812 279.484375 247.453125 280.453125 C 246.273438 281.421875 245.140625 282.445312 244.0625 283.527344 C 242.984375 284.605469 241.957031 285.738281 240.988281 286.917969 C 240.019531 288.097656 239.113281 289.324219 238.265625 290.59375 C 237.414062 291.863281 236.632812 293.171875 235.910156 294.519531 C 235.191406 295.863281 234.539062 297.242188 233.957031 298.65625 C 233.371094 300.066406 232.855469 301.503906 232.414062 302.964844 C 231.96875 304.425781 231.601562 305.90625 231.300781 307.402344 C 231.003906 308.902344 230.78125 310.410156 230.632812 311.929688 C 230.480469 313.449219 230.40625 314.972656 230.40625 316.5 C 230.40625 318.027344 230.480469 319.550781 230.632812 321.070312 C 230.78125 322.589844 231.003906 324.097656 231.304688 325.597656 C 231.601562 327.09375 231.972656 328.574219 232.417969 330.035156 C 232.859375 331.496094 233.375 332.933594 233.957031 334.34375 C 234.542969 335.753906 235.195312 337.132812 235.914062 338.480469 C 236.636719 339.828125 237.421875 341.136719 238.269531 342.40625 C 239.117188 343.675781 240.027344 344.902344 240.996094 346.082031 C 241.964844 347.261719 242.988281 348.390625 244.070312 349.472656 C 245.148438 350.550781 246.277344 351.574219 247.460938 352.542969 C 248.640625 353.511719 249.867188 354.421875 251.136719 355.269531 C 252.40625 356.117188 253.714844 356.902344 255.0625 357.621094 C 256.410156 358.339844 257.789062 358.992188 259.199219 359.578125 C 260.609375 360.160156 262.046875 360.675781 263.507812 361.117188 C 264.96875 361.5625 266.449219 361.933594 267.945312 362.230469 C 269.445312 362.527344 270.953125 362.75 272.472656 362.898438 C 273.992188 363.050781 275.515625 363.125 277.042969 363.125 C 278.570312 363.125 280.09375 363.046875 281.613281 362.898438 C 283.132812 362.75 284.644531 362.523438 286.140625 362.226562 C 287.640625 361.929688 289.117188 361.558594 290.578125 361.113281 C 292.042969 360.667969 293.476562 360.15625 294.886719 359.570312 C 296.300781 358.984375 297.675781 358.332031 299.023438 357.613281 C 300.371094 356.894531 301.679688 356.109375 302.949219 355.261719 C 304.21875 354.410156 305.445312 353.503906 306.625 352.535156 C 307.804688 351.5625 308.933594 350.539062 310.015625 349.460938 C 311.09375 348.378906 312.117188 347.25 313.085938 346.066406 C 314.054688 344.886719 314.964844 343.660156 315.8125 342.390625 C 316.660156 341.121094 317.445312 339.8125 318.164062 338.464844 C 318.882812 337.117188 319.535156 335.738281 320.117188 334.328125 C 320.703125 332.917969 321.214844 331.480469 321.660156 330.019531 C 322.101562 328.558594 322.472656 327.078125 322.769531 325.582031 C 323.066406 324.082031 323.289062 322.574219 323.441406 321.054688 C 323.589844 319.535156 323.664062 318.011719 323.664062 316.484375 C 323.664062 314.957031 323.585938 313.433594 323.4375 311.914062 C 323.285156 310.394531 323.0625 308.886719 322.761719 307.390625 C 322.464844 305.890625 322.09375 304.414062 321.648438 302.953125 C 321.207031 301.492188 320.691406 300.054688 320.105469 298.644531 C 319.523438 297.234375 318.871094 295.855469 318.148438 294.511719 C 317.429688 293.164062 316.644531 291.855469 315.796875 290.585938 C 314.949219 289.316406 314.039062 288.09375 313.070312 286.914062 C 312.101562 285.734375 311.078125 284.601562 309.996094 283.523438 C 308.917969 282.445312 307.789062 281.421875 306.609375 280.453125 C 305.425781 279.484375 304.203125 278.574219 302.933594 277.726562 C 301.664062 276.878906 300.355469 276.09375 299.007812 275.375 C 297.664062 274.65625 296.285156 274.003906 294.875 273.417969 C 293.464844 272.835938 292.027344 272.320312 290.566406 271.878906 C 289.105469 271.433594 287.625 271.0625 286.128906 270.765625 C 284.632812 270.46875 283.125 270.242188 281.605469 270.09375 C 280.085938 269.945312 278.5625 269.867188 277.035156 269.867188 Z M 277.035156 340.300781 C 276.253906 340.300781 275.476562 340.261719 274.703125 340.183594 C 273.925781 340.109375 273.15625 339.992188 272.390625 339.84375 C 271.628906 339.691406 270.871094 339.5 270.125 339.273438 C 269.378906 339.046875 268.648438 338.785156 267.925781 338.488281 C 267.207031 338.1875 266.503906 337.855469 265.816406 337.488281 C 265.128906 337.121094 264.460938 336.722656 263.8125 336.289062 C 263.164062 335.855469 262.539062 335.390625 261.9375 334.898438 C 261.332031 334.402344 260.757812 333.878906 260.207031 333.328125 C 259.652344 332.777344 259.132812 332.199219 258.636719 331.597656 C 258.140625 330.996094 257.679688 330.371094 257.246094 329.722656 C 256.8125 329.074219 256.410156 328.40625 256.042969 327.71875 C 255.675781 327.03125 255.34375 326.328125 255.046875 325.609375 C 254.746094 324.886719 254.484375 324.15625 254.257812 323.410156 C 254.03125 322.664062 253.84375 321.90625 253.691406 321.144531 C 253.539062 320.378906 253.421875 319.609375 253.347656 318.832031 C 253.269531 318.058594 253.230469 317.28125 253.230469 316.5 C 253.230469 315.722656 253.269531 314.941406 253.347656 314.167969 C 253.421875 313.390625 253.535156 312.621094 253.6875 311.855469 C 253.839844 311.09375 254.03125 310.335938 254.253906 309.589844 C 254.480469 308.84375 254.742188 308.113281 255.042969 307.390625 C 255.339844 306.671875 255.671875 305.96875 256.039062 305.28125 C 256.40625 304.59375 256.808594 303.925781 257.242188 303.277344 C 257.671875 302.628906 258.136719 302.003906 258.632812 301.398438 C 259.125 300.796875 259.648438 300.21875 260.199219 299.667969 C 260.75 299.117188 261.328125 298.59375 261.929688 298.101562 C 262.53125 297.605469 263.15625 297.140625 263.804688 296.707031 C 264.453125 296.273438 265.121094 295.875 265.808594 295.507812 C 266.496094 295.140625 267.199219 294.804688 267.917969 294.507812 C 268.640625 294.210938 269.371094 293.945312 270.117188 293.71875 C 270.863281 293.492188 271.617188 293.304688 272.382812 293.152344 C 273.148438 293 273.917969 292.886719 274.695312 292.808594 C 275.46875 292.730469 276.246094 292.691406 277.027344 292.691406 C 277.804688 292.691406 278.582031 292.730469 279.359375 292.804688 C 280.136719 292.882812 280.90625 292.996094 281.667969 293.148438 C 282.433594 293.300781 283.191406 293.488281 283.9375 293.714844 C 284.683594 293.941406 285.414062 294.203125 286.136719 294.5 C 286.855469 294.800781 287.558594 295.132812 288.246094 295.5 C 288.933594 295.867188 289.601562 296.265625 290.25 296.699219 C 290.898438 297.132812 291.523438 297.59375 292.128906 298.089844 C 292.730469 298.582031 293.308594 299.105469 293.859375 299.65625 C 294.410156 300.207031 294.933594 300.785156 295.429688 301.386719 C 295.921875 301.988281 296.386719 302.613281 296.820312 303.261719 C 297.253906 303.910156 297.65625 304.578125 298.023438 305.265625 C 298.390625 305.953125 298.722656 306.65625 299.023438 307.375 C 299.320312 308.097656 299.582031 308.828125 299.808594 309.574219 C 300.035156 310.320312 300.226562 311.074219 300.378906 311.839844 C 300.53125 312.605469 300.644531 313.375 300.722656 314.148438 C 300.800781 314.925781 300.839844 315.703125 300.839844 316.484375 C 300.839844 317.261719 300.800781 318.039062 300.722656 318.816406 C 300.644531 319.59375 300.53125 320.363281 300.378906 321.125 C 300.226562 321.890625 300.039062 322.648438 299.8125 323.390625 C 299.585938 324.136719 299.320312 324.871094 299.023438 325.59375 C 298.726562 326.3125 298.390625 327.015625 298.023438 327.703125 C 297.65625 328.390625 297.257812 329.058594 296.824219 329.707031 C 296.390625 330.355469 295.925781 330.980469 295.433594 331.582031 C 294.9375 332.1875 294.414062 332.761719 293.863281 333.316406 C 293.3125 333.867188 292.734375 334.390625 292.132812 334.882812 C 291.53125 335.378906 290.90625 335.84375 290.257812 336.277344 C 289.609375 336.710938 288.941406 337.109375 288.253906 337.480469 C 287.566406 337.847656 286.863281 338.179688 286.144531 338.480469 C 285.421875 338.777344 284.691406 339.039062 283.945312 339.269531 C 283.199219 339.496094 282.441406 339.683594 281.679688 339.835938 C 280.914062 339.988281 280.144531 340.105469 279.367188 340.183594 C 278.59375 340.257812 277.816406 340.296875 277.035156 340.300781 Z M 277.035156 340.300781 " fill-opacity="1" fill-rule="evenodd"/></svg>