<svg xmlns="http://www.w3.org/2000/svg" xmlns:xlink="http://www.w3.org/1999/xlink" width="500" zoomAndPan="magnify" viewBox="0 0 375 374.999991" height="500" preserveAspectRatio="xMidYMid meet" version="1.0"><defs><clipPath id="83a5a0ea1d"><path d="M 11 12 L 366 12 L 366 365.640625 L 11 365.640625 Z M 11 12 " clip-rule="nonzero"/></clipPath></defs><g clip-path="url(#83a5a0ea1d)"><path fill="#91a8d0" d="M 360.570312 150.992188 L 215.421875 22.785156 C 200.074219 9.242188 176.8125 9.242188 161.464844 22.785156 L 16.261719 150.992188 C 4.472656 161.1875 16.261719 183.335938 34.320312 171.386719 L 179.46875 43.179688 C 184.566406 38.664062 192.320312 38.664062 197.417969 43.179688 L 310.808594 143.289062 L 310.808594 324.339844 C 310.808594 331.773438 304.648438 337.9375 297.210938 337.9375 L 256.421875 337.9375 L 256.421875 188.378906 C 256.421875 180.890625 250.261719 174.785156 242.828125 174.785156 L 134.058594 174.785156 C 126.625 174.785156 120.464844 180.890625 120.464844 188.378906 L 120.464844 297.148438 C 120.464844 304.582031 126.625 310.742188 134.058594 310.742188 C 141.496094 310.742188 147.65625 304.582031 147.65625 297.148438 L 147.65625 201.976562 L 229.230469 201.976562 L 229.230469 337.9375 L 79.675781 337.9375 C 72.1875 337.9375 66.078125 331.773438 66.078125 324.339844 L 66.078125 207.445312 C 66.078125 199.957031 59.972656 193.851562 52.484375 193.851562 C 44.996094 193.851562 38.886719 199.957031 38.886719 207.445312 L 38.886719 324.339844 C 38.886719 335.175781 43.136719 345.53125 50.835938 353.179688 C 58.484375 360.773438 68.894531 365.074219 79.675781 365.128906 L 297.210938 365.128906 C 307.992188 365.074219 318.402344 360.773438 326.050781 353.179688 C 333.75 345.53125 338.054688 335.175781 338 324.339844 L 338 167.296875 L 342.621094 171.386719 C 345.0625 173.5625 348.304688 174.785156 351.597656 174.785156 C 359.03125 174.785156 365.191406 168.625 365.191406 161.1875 C 365.191406 157.3125 363.546875 153.59375 360.570312 150.992188 " fill-opacity="1" fill-rule="nonzero"/></g></svg>