<svg xmlns="http://www.w3.org/2000/svg" xmlns:xlink="http://www.w3.org/1999/xlink" width="500" zoomAndPan="magnify" viewBox="0 0 375 374.999991" height="500" preserveAspectRatio="xMidYMid meet" version="1.0"><defs><clipPath id="af00b12c1a"><path d="M 12.824219 12.824219 L 362.171875 12.824219 L 362.171875 362.164062 L 12.824219 362.164062 Z M 12.824219 12.824219 " clip-rule="nonzero"/></clipPath></defs><g clip-path="url(#af00b12c1a)"><path fill="#91a8d0" d="M 67.828125 67.828125 C 89.648438 46.007812 118.296875 35.105469 146.957031 35.105469 C 175.609375 35.105469 204.269531 46.015625 226.082031 67.828125 C 269.714844 111.457031 269.714844 182.449219 226.082031 226.082031 C 182.453125 269.703125 111.457031 269.710938 67.828125 226.082031 C 24.195312 182.449219 24.195312 111.457031 67.828125 67.828125 Z M 146.957031 281.082031 C 177.828125 281.082031 208.683594 270.484375 233.609375 249.371094 L 343.144531 358.902344 C 345.324219 361.078125 348.175781 362.164062 351.027344 362.164062 C 353.882812 362.164062 356.734375 361.078125 358.910156 358.902344 C 363.261719 354.550781 363.261719 347.496094 358.910156 343.140625 L 249.371094 233.609375 C 293.992188 180.941406 291.511719 101.730469 241.84375 52.066406 C 189.523438 -0.253906 104.394531 -0.257812 52.066406 52.066406 C -0.253906 104.386719 -0.253906 189.519531 52.066406 241.839844 C 78.226562 268 112.59375 281.082031 146.957031 281.082031 " fill-opacity="1" fill-rule="nonzero"/></g></svg>